<?xml version="1.0" encoding="UTF-8" standalone="no"?>
<!-- Created with Inkscape (http://www.inkscape.org/) -->

<svg
   width="200mm"
   height="300mm"
   viewBox="0 0 200 300"
   version="1.1"
   id="svg78861"
   inkscape:version="1.1.2 (0a00cf5339, 2022-02-04)"
   sodipodi:docname="hearts.svg"
   xmlns:inkscape="http://www.inkscape.org/namespaces/inkscape"
   xmlns:sodipodi="http://sodipodi.sourceforge.net/DTD/sodipodi-0.dtd"
   xmlns="http://www.w3.org/2000/svg"
   xmlns:svg="http://www.w3.org/2000/svg">
  <sodipodi:namedview
     id="namedview78863"
     pagecolor="#ffffff"
     bordercolor="#000000"
     borderopacity="0.25"
     inkscape:pageshadow="2"
     inkscape:pageopacity="0.0"
     inkscape:pagecheckerboard="0"
     inkscape:document-units="mm"
     showgrid="false"
     showguides="false"
     inkscape:guide-bbox="true"
     inkscape:zoom="1.6748036"
     inkscape:cx="569.91757"
     inkscape:cy="861.29503"
     inkscape:window-width="1366"
     inkscape:window-height="704"
     inkscape:window-x="0"
     inkscape:window-y="0"
     inkscape:window-maximized="1"
     inkscape:current-layer="path79237">
    <sodipodi:guide
       position="255.86329,249.99195"
       orientation="0,-1"
       id="guide78941" />
    <sodipodi:guide
       position="239.75641,87.763856"
       orientation="0,-1"
       id="guide78943" />
    <sodipodi:guide
       position="200.12282,301.94092"
       orientation="1,0"
       id="guide78947" />
    <sodipodi:guide
       position="100.15111,273.24642"
       orientation="1,0"
       id="guide78949" />
    <sodipodi:guide
       position="-0.069817391,309.26651"
       orientation="1,0"
       id="guide79676" />
    <sodipodi:guide
       position="200.90203,160.71646"
       orientation="0,-1"
       id="guide82180" />
    <sodipodi:guide
       position="49.151443,286.59506"
       orientation="1,0"
       id="guide82298" />
    <sodipodi:guide
       position="49.151443,277.43502"
       orientation="0,-1"
       id="guide83166" />
    <sodipodi:guide
       position="225.64981,220.68744"
       orientation="0,-1"
       id="guide83997" />
    <sodipodi:guide
       position="120.70292,111.51137"
       orientation="0,-1"
       id="guide84015" />
    <sodipodi:guide
       position="226.85745,202.6851"
       orientation="0,-1"
       id="guide84889" />
    <sodipodi:guide
       position="25.592553,143.91702"
       orientation="1,0"
       id="guide85195" />
    <sodipodi:guide
       position="175.67234,126.85532"
       orientation="1,0"
       id="guide85197" />
    <sodipodi:guide
       position="15.080556,263.91837"
       orientation="1,0"
       id="guide86552" />
    <sodipodi:guide
       position="79.937233,252.99195"
       orientation="1,0"
       id="guide86876" />
    <sodipodi:guide
       position="49.151443,169.63347"
       orientation="0,-1"
       id="guide87014" />
    <sodipodi:guide
       position="37.533829,140.25781"
       orientation="0,-1"
       id="guide87040" />
    <sodipodi:guide
       position="154.14774,195.91177"
       orientation="1,0"
       id="guide87930" />
  </sodipodi:namedview>
  <defs
     id="defs78858" />
  <g
     inkscape:label="Layer 1"
     inkscape:groupmode="layer"
     id="layer1">
    <g
       id="path79237"
       style="fill:#870000;fill-opacity:1">
      <path
         style="color:#000000;vector-effect:non-scaling-stroke;fill:none;fill-opacity:1;stroke:#000000;stroke-width:0.00181689;stroke-opacity:1;-inkscape-stroke:hairline"
         d="M 22.646347,5.9519535e-5 C 30.214453,-0.02727048 32.647338,9.3625889 26.579938,17.407111 20.946358,24.876448 16.800534,28.909403 15.914315,28.911837 15.028095,28.914237 10.082472,24.876448 3.8087851,17.327772 -2.7976551,9.3787179 -0.25407291,0.09782352 7.1743777,0.05544052 c 6.1727193,-0.03522 6.9454683,3.68492798 7.8247703,3.68492798 0.879302,0 2.0643,-3.72014698 7.647199,-3.740308980465 z"
         id="path80338"
         sodipodi:nodetypes="sszsszs" />
      <path
         style="color:#000000;vector-effect:non-scaling-stroke;fill:none;fill-opacity:1;stroke:#000000;stroke-width:0.00181689;stroke-opacity:1;-inkscape-stroke:hairline"
         d="m 22.646347,31.750074 c 7.568106,-0.02733 10.000991,9.362534 3.933591,17.407057 -5.63358,7.469337 -9.779404,11.502292 -10.665623,11.504726 -0.88622,0.0024 -5.831843,-4.035389 -12.1055299,-11.584065 -6.6064402,-7.949055 -4.06285801,-17.229954 3.3655926,-17.272337 6.1727193,-0.03522 6.9454683,3.68493 7.8247703,3.68493 0.879302,0 2.0643,-3.720149 7.647199,-3.740311 z"
         id="path86523"
         sodipodi:nodetypes="sszsszs" />
      <circle
         style="vector-effect:non-scaling-stroke;fill:none;fill-opacity:1;stroke:#000000;stroke-width:0.00668661;stroke-miterlimit:4;stroke-dasharray:none;stroke-opacity:1;-inkscape-stroke:hairline"
         id="path23113-3"
         cx="15.078169"
         cy="41.537971"
         r="3" />
      <path
         id="path86735"
         style="color:#000000;vector-effect:non-scaling-stroke;fill:none;fill-opacity:1;stroke:#000000;stroke-width:0.00686699;stroke-opacity:1;-inkscape-stroke:hairline"
         d="M 85.591797 240 C 64.491076 240.0762 60.012799 254.13672 56.689453 254.13672 C 53.366107 254.13672 50.445197 240.07587 27.115234 240.20898 C -0.96079943 240.36917 -10.574692 275.44656 14.394531 305.49023 C 38.106104 334.02066 56.798945 349.281 60.148438 349.27344 C 63.497927 349.26425 79.166714 334.02157 100.45898 305.79102 C 103.91404 301.2101 106.63581 296.51444 108.67578 291.8418 L 56.998047 291.8418 L 56.998047 269.16406 L 113.35938 269.16406 C 112.8037 252.53661 102.64984 239.9384 85.591797 240 z "
         transform="scale(0.26458333)" />
      <path
         style="color:#000000;vector-effect:non-scaling-stroke;fill:none;fill-opacity:1;stroke:#000000;stroke-width:0.00363378;stroke-opacity:1;-inkscape-stroke:hairline"
         d="M 86.826027,0.16871254 C 101.96219,0.11405254 106.82796,18.893768 94.693193,34.982814 83.426047,49.921488 75.134394,57.987393 73.361954,57.992263 71.589519,57.997263 61.698279,49.921488 49.150899,34.824134 35.938019,18.926025 41.025179,0.36423954 55.882079,0.27947354 c 12.34545,-0.07044 13.89094,7.36985496 15.64955,7.36985496 1.758595,0 4.128595,-7.44029196 15.294398,-7.48061596 z"
         id="path86870"
         sodipodi:nodetypes="sszsszs" />
      <path
         style="color:#000000;vector-effect:non-scaling-stroke;fill:none;fill-opacity:1;stroke:#000000;stroke-width:0.00363378;stroke-opacity:1;-inkscape-stroke:hairline"
         d="m 86.826027,64.727081 c 15.136163,-0.05466 20.001933,18.725061 7.867166,34.814107 -11.267146,14.938752 -19.558799,23.004702 -21.331239,23.009572 -1.772435,0.005 -11.663675,-8.07082 -24.211055,-23.168252 -13.21288,-15.898109 -8.12572,-34.4599 6.73118,-34.544666 12.34545,-0.07044 13.89094,7.369859 15.64955,7.369859 1.758595,0 4.128595,-7.440296 15.294398,-7.48062 z"
         id="path86872"
         sodipodi:nodetypes="sszsszs" />
      <circle
         style="vector-effect:non-scaling-stroke;fill:none;fill-opacity:1;stroke:#000000;stroke-width:0.00668661;stroke-miterlimit:4;stroke-dasharray:none;stroke-opacity:1;-inkscape-stroke:hairline"
         id="circle86874"
         cx="71.402206"
         cy="80.124275"
         r="3" />
      <path
         id="path87202"
         style="color:#000000;vector-effect:non-scaling-stroke;fill:none;fill-opacity:1;stroke:#000000;stroke-width:0.00363379;stroke-opacity:1;-inkscape-stroke:hairline"
         d="m 86.826219,130.34398 c -11.165803,0.0403 -13.536078,7.48068 -15.294674,7.48068 -1.758611,0 -3.304241,-7.44049 -15.649691,-7.37009 -14.856899,0.0848 -19.943736,18.64698 -6.730854,34.54517 12.54738,15.09744 22.438489,23.1731 24.210925,23.1681 1.772438,-0.005 10.064353,-8.07069 21.331498,-23.00945 0.605574,-0.80292 1.166521,-1.61308 1.688258,-2.42672 H 71.470567 v -6.00015 h 28.007546 c 5.373237,-13.56263 -0.117727,-26.43284 -12.651894,-26.38754 z" />
      <path
         id="path87579"
         style="color:#000000;vector-effect:non-scaling-stroke;fill:none;fill-opacity:1;stroke:#000000;stroke-width:0.00363379;stroke-opacity:1;-inkscape-stroke:hairline"
         d="m 86.826219,198.15999 c -11.165803,0.0403 -13.536078,7.48017 -15.294674,7.48017 -1.758611,0 -3.304241,-7.43998 -15.649691,-7.36958 -12.449188,0.071 -18.031155,13.1162 -11.74192,26.69605 h 27.330633 v 6.00015 H 47.714394 c 0.455102,0.61903 0.927696,1.23613 1.436606,1.84846 12.54738,15.09735 22.438489,23.1731 24.210925,23.1681 1.772438,-0.005 10.064353,-8.07078 21.331498,-23.00945 3.782926,-5.01566 5.912957,-10.29292 6.595437,-15.17943 H 71.470567 v -6.00016 h 29.913373 c -0.92308,-7.89259 -6.15728,-13.66466 -14.557721,-13.63431 z" />
      <path
         style="color:#000000;vector-effect:non-scaling-stroke;fill:none;fill-opacity:1;stroke:#000000;stroke-width:0.00545067;stroke-opacity:1;-inkscape-stroke:hairline"
         d="M 177.11433,0.26913801 C 199.81865,0.18714421 207.1173,28.356711 188.9151,52.49026 172.01437,74.89827 159.5769,86.997134 156.91824,87.004435 154.25958,87.011741 139.42271,74.89827 120.60164,52.25224 100.78233,28.405095 108.41307,0.56242888 130.69842,0.43527934 149.21658,0.32962372 151.53483,11.490063 154.17274,11.490063 c 2.6379,0 6.19289,-11.16043928 22.94159,-11.22092499 z"
         id="path87696"
         sodipodi:nodetypes="sszsszs" />
      <path
         id="path88234"
         style="color:#000000;vector-effect:non-scaling-stroke;fill:none;fill-opacity:1;stroke:#000000;stroke-width:0.020601;stroke-opacity:1;-inkscape-stroke:hairline"
         d="M 669.4082 712.39844 C 606.10603 712.62706 592.66923 754.80859 582.69922 754.80859 C 572.72917 754.80859 563.9684 712.62605 493.97852 713.02539 C 421.91563 713.43655 390.40786 790.52751 429.71875 869.23438 L 582.60547 869.23438 L 582.60547 891.91211 L 443.03516 891.91211 C 446.90231 897.60452 451.1586 903.26665 455.81641 908.87109 C 526.95116 994.46288 583.02769 1040.2451 593.07617 1040.2188 C 603.12465 1040.1912 650.13299 994.46171 714.00977 909.76953 C 736.20361 880.34345 748.35229 849.3341 751.76562 820.83008 L 582.60547 820.83008 L 582.60547 798.15234 L 752.63477 798.15234 C 750.32513 749.13268 719.98625 712.21577 669.4082 712.39844 z "
         transform="scale(0.26458333)" />
      <path
         style="color:#000000;vector-effect:non-scaling-stroke;fill:none;fill-opacity:1;stroke:#000000;stroke-width:0.00545067;stroke-opacity:1;-inkscape-stroke:hairline"
         d="m 177.11433,92.873357 c 22.70432,-0.08199 30.00297,28.087693 11.80077,52.221383 -16.90073,22.40814 -29.3382,34.50707 -31.99686,34.51437 -2.65866,0.007 -17.49553,-12.10623 -36.3166,-34.75239 -19.81931,-23.84728 -12.18857,-51.690072 10.09678,-51.817221 18.51816,-0.105656 20.83641,11.054811 23.47432,11.054811 2.6379,0 6.19289,-11.160467 22.94159,-11.220953 z"
         id="path87926"
         sodipodi:nodetypes="sszsszs" />
      <ellipse
         style="vector-effect:non-scaling-stroke;fill:none;fill-opacity:1;stroke:#000000;stroke-width:0.00669284;stroke-miterlimit:4;stroke-dasharray:none;stroke-opacity:1;-inkscape-stroke:hairline"
         id="circle87928"
         cx="154.14529"
         cy="114.22081"
         rx="3"
         ry="3.0055926" />
    </g>
  </g>
</svg>
